<?xml version="1.0" encoding="UTF-8"?>
<svg id="Layer_2" data-name="Layer 2" xmlns="http://www.w3.org/2000/svg" viewBox="0 0 314.49 365.08">
  <g id="Layer_1-2" data-name="Layer 1">
    <path d="M50.37,85.82c.27-.82-.56-2.47.29-3.76,11.08-4.47,27.59-22.81,38.7-24.44,1.53-.23,3.85,1.36,4.58.95.15-.09-1.02-2.04-.6-2.74,1.65-2.75,16.62-6.02,20.35-7.14.8-.24.58-1.83,1.33-2.04,4.96-1.4,20.32-1.71,23.67-4.61-.42-1.6-.55-2.91.06-4.54,1.62-4.36,7.82-17.01,8.3-20.57.55-4.03-.92-8.39-4.73-10.19-2.71-1.28-4.11,1.93-3.47-4.02l-1.98,2.51-11.62-1.17,1.36-4.07h59.9v4.09c-12.05-1.39-19.02,4.6-15.84,16.78.9,3.46,2.55,8.71,3.61,11.09.7,1.57,1.97,2.58,1.32,4.83-7.53-1.24-14.48-3.06-21.73,0-.78-4.8-.1-11.23-5.47-13.63l-5.45,17.7c21.49-.24,43.93-.74,64.74,4.79,3.28.87,18.38,5.29,20.14,6.33,1.45.86,2.25,2.18,2.26,3.87l2.02-2.71c1.93,5.61,4.74,3.11,7.73,4.47,27.87,12.66,48.06,35.65,64.71,56.71l9.93,20.54-19.03-.69c-.78-2.54-3.98-3.79-4.99-5.07-.34-.44.44-2-.4-3.07-7.6-9.63-15.85-19.93-25.91-26.73l1.32-3.92c-6.14,1.47-8.07-5.19-11.89-8.24-1.7-1.36-5.82-.95-8.05-4.56-.8-1.29-.33-3.3-.52-3.56-.15-.2-2.55,1.59-5.05.43-2.25-1.05-2.62-3.6-4.13-4.53-24.57-15.23-52.61-23.77-82.77-26.71-3.33-.32-10.93,2.51-10.16-1.87h-1.32c-1.5,4.56-5.42,9.41-7.28,13.6-1.68,3.77-3.17,12.3-4.18,14.96-15.34,40.53-30.67,79.64-46.12,121.29-1.69,4.55-2.97,12.73-4.88,17.2-1.68,3.93-5.83,2.08-2.88,6.5l-2.53,1.43c.78,1.59,1.18,3.02.59,4.79-5.28,16.07-14.26,31.41-19.18,47.71-1.43-1.26-2.51-2.1-2.92-4.08-.53-2.58,8.29-21.14,10-25.6,10.96-28.59,22.32-58.9,33.52-88.82,8.6-22.99,18.2-52.37,27.5-77,1.58-4.19,11.96-26.2,11.54-28.55-1.57-2.5-2.1-1.3-3.82-1.19-21.99,1.4-47.95,14.89-65.54,27.14-7.32,5.1-5.95,6.6-15.06,10.13-2.78,8.38-3.24,4.3-6.52,7.03-.56.47-2.56,7.58-6.71,10.73-1.09.83-3.06,1.13-4.46,1.33-.94,1.9,4.24,1.11,2.7,2.69-.81.83-4.85,2.64-6.3,4.59-54.82,74.18,8.65,173.87,78.89,209.56,1.89.96,12.06,5.76,13.01,5.09,1.33-3.13,3.2-6.35,5.19-9.1,7.29-10.12,11.42-27.23,19.12-39.17l.49-3.78,14.88-30.94,4.05,1.38c.25-8.32,10.89-19.05,17.25-24.3,6.62-5.45,14.88-10.89,23.61-11.13l-25.92-86.53.27-1.88,2.49-.15c.06-2.16-2.91-1.36-4.49-4.46-.4-.8-3.82-14.94-4.43-17.31-.35-1.35.73-3.68.47-3.93l-2.42-.18,2.69-4.08-2.6,1.31c-4-12.55-8.47-25.05-10.99-38.07,7.63-.49,14.68,1.54,21.93,3.52l74.58,251.94c-2.06.7-3.38,3.64-4.26,4.33-.35.27-1.7-.83-2.09-.58-2.53,1.67-5.23,4.53-9.15,6.46-1.27.63-1,2.28-2.75-.02l-18.11-59.54,2.48-4.49-3.88-.17-4.27-12.84,2.69-.64v-1.33s-2.41-.23-2.41-.23c1.67-3.06-1.36-2.03-2.19-5.4-.95-3.85-.5-5.63.52-9.38l-2.7,1.38c-1.22-5.49.83-12.56-6.68-13.29-10.7-1.03-29.85,21.41-35.62,29.96-10.73,15.91-22.36,41.85-30.87,61.65-2.24,5.22-7.74,15.59-8.98,20.04-.36,1.29-1.47,2.6-.34,3.86,5.4,2.12,9.3,4.06,15.07,5.53,56.17,14.35,108.82-4.71,144.92-47.11,1.89-2.22,7.11-6.82,8.13-8.39,1.79-2.74,2.17-7.65,6.3-11.48,1.38-1.27,3.24.22,3.33.08.31-.55-.87-7.15,1.97-11.88,1.2-2,3.34-4.37,4.83-.98l-6.83,15.94-20.54,26.83-3.92-1.33c-1.84,8.26-12.65,14.26-19.42,19.14-10.16,7.32-24.01,15.82-38.05,20.79-12.61,4.46-31.11,9.57-44.07,7.93l-.59,2.54h-2.71s-.02-2.7-.02-2.7h-1.33c.57,4.89-3.31,1.82-6.2,2.09-7.02.66-20.48.65-27.99-.2-4.31-.49-20.73-5.48-23.5-4.27-7.46,8.45-17.8,23.07-30.26,20.62l-1.92,2.19h-16.34c-10.08-4.56-19.04-7.71-26.32-16.58-10.52-12.81-9.85-32.52-4.29-47.43,6.72,1.39,3.34,7.48,4.02,12.18.9,6.22,2.4,15.18,6.64,20.03,1.61,1.83,5.33,2.98,6.8,4.48,1.38,1.41.65,3.39,1.07,3.91.21.26,1.92-.76,2.58-.26.96.73,1.16,2.59,1.61,2.81.47.23,9.16,2.85,10.07,3.04,7.21,1.47,14.51-.04,21.68,1.21l15.63-10.62c-3.6-.1-7.98-1.66-11.28-3.07-1.59-.68-4.42-2.11-6.4-3.02-4.54-2.08-8.69-5.07-13.63-6.25l1.34-5.39c-4.59,4.66-7.7,1.02-12.13-2.15-11.77-8.44-21.66-18.89-31.48-30.84-1.28-1.56-6.4-5.02-6.6-5.4-.66-1.26,1.53-.16-1.53-4.81-9.15-13.89-16.53-27.4-20.98-44.05-2.61-9.77-3.3-20.17-6.23-29.9v-20.43c3.03-11.6,3.95-23.6,7.92-34.99,6.49-18.61,16.44-32.32,26.13-48.12l2.63,1.33c1.53-7.17,7.19-12.42,13.69-14.94Z"/>
    <path d="M232.81,365.08c-4.98-8.09,8.67-3.4,10.92-4.84,4.92-3.15,5.18-8.6,3.64-13.49-.46-1.47-3.74-6.68-4.31-10.18-.89-5.48,2.64-3.19,3.35-3.68,4.5-3.11,8.69-7.1,14.27-8.71,1.64,6.61,5.54,13.97,7.02,20.44.6,2.61-1.14,5.23-.2,6.85.43.73,9.25,8.41,10.35,8.79,2.42.83,9.49.19,12.78.74l.73,4.09h-58.54Z"/>
  </g>
</svg>