<?xml version="1.0" encoding="UTF-8"?>
<svg id="Layer_2" data-name="Layer 2" xmlns="http://www.w3.org/2000/svg" viewBox="0 0 93.66 16.08">
  <defs>
    <style>
      .cls-1 {
        fill: #2f292a;
      }
    </style>
  </defs>
  <g id="Layer_1-2" data-name="Layer 1">
    <path class="cls-1" d="M3.53,2.16v.02c-.33,0-.67.03-.99,0-.62-.06-.79.22-.77.8.04,1.17.03,2.34.01,3.51,0,.45.15.67.6.66.89-.02,1.79,0,2.67-.09.82-.07,1.33-.6,1.57-1.37.73-2.32-.29-3.63-2.71-3.54-.13,0-.26.01-.38.02M1.79,11.49h0c0,.61-.05,1.23.03,1.83.03.23.36.58.57.6,1.15.07,2.3.1,3.44.03,1.37-.08,2.38-1.18,2.33-2.36-.08-1.78-.9-2.61-2.59-2.6-1.05,0-2.09.06-3.14.06-.5,0-.68.2-.65.69.03.58,0,1.17,0,1.75M3.09,16c-.61,0-1.23.02-1.84,0C.23,15.95,0,15.68,0,14.69c.01-2.06.03-4.12.03-6.18,0-2.52.02-5.04-.01-7.56C0,.23.29,0,.96.03c1.4.05,2.81.02,4.21.11,1.99.13,3.04.97,3.51,3.55.19,1.06.08,2.15-.45,3.13-.23.44-.21.72.21,1.03,1.84,1.36,1.94,3.96,1.35,5.64-.51,1.44-1.61,2.19-3.12,2.34-1.2.11-2.39.17-3.59.25,0-.02,0-.05,0-.07"/>
    <path class="cls-1" d="M21.04,16.01c-1.2,0-2.4.01-3.61,0-.88-.01-1.09-.22-1.09-1.1.04-4.66.1-9.32.13-13.98,0-.57.12-.93.79-.92,1.81.02,3.62,0,5.44,0,.61,0,1.23.02,1.84.02,1.01.01,1.21.19,1.22,1.12.01.91-.17,1.08-1.23,1.09-1.64.01-3.27,0-4.91-.01-1.28-.01-1.28-.02-1.28,1.21,0,.76.04,1.53,0,2.29-.04.66.2.93.88.9.84-.04,1.69-.03,2.53,0,.51.02,1.08.03,1.06.78-.01.71-.4.96-1.09.96-.92,0-1.84.09-2.76.11-.41,0-.61.13-.61.56,0,1.35,0,2.7-.02,4.05,0,.43.19.58.6.58,1.91.04,3.83.08,5.74.15.93.03,1.11.28,1.08,1.18-.02.68-.32,1.03-1.04,1.01-1.23-.02-2.45,0-3.68,0h0Z"/>
    <path class="cls-1" d="M88.96,16c-1.23,0-2.46.02-3.69,0-.83-.01-1.04-.23-1.04-1.06.04-4.71.09-9.43.13-14.14,0-.48.13-.78.68-.78,1.79,0,3.58-.01,5.36-.01.72,0,1.43.01,2.15.03.86.02,1.07.23,1.08,1.11.02.87-.17,1.09-1.07,1.1-1.79.02-3.58,0-5.38-.01-.96,0-.99.03-.98.98,0,.84.07,1.68.02,2.52-.04.74.28.93.95.9.82-.03,1.64-.02,2.46,0,.51.02,1.08.04,1.07.78-.02.71-.4.96-1.09.96-.92,0-1.84.09-2.76.11-.42,0-.6.15-.6.58,0,1.3-.02,2.6-.05,3.9-.01.52.19.73.72.73,1.84.03,3.68.07,5.52.13,1.05.04,1.3.34,1.21,1.3-.06.61-.35.91-.99.9-1.23-.02-2.46,0-3.68,0h0Z"/>
    <path class="cls-1" d="M55.62,7.92c0-2.34,0-4.69,0-7.03,0-.54.11-.88.75-.88,1.81.01,3.63,0,5.44,0,.72,0,1.43.03,2.15.02.77,0,.93.47.96,1.1.03.66-.18,1.11-.92,1.11-1.77,0-3.53,0-5.3,0-1.27-.01-1.27-.02-1.25,1.25,0,.71.03,1.43.05,2.14.03.99.04,1,1.07,1,.79,0,1.59-.01,2.38.01.53.02,1.05.1,1.01.84-.04.68-.42.9-1.07.9-.92,0-1.84.1-2.76.11-.48,0-.62.23-.62.65-.02,1.27-.03,2.55-.08,3.82-.02.53.21.72.72.73,1.86.03,3.73.07,5.59.14,1,.03,1.32.47,1.13,1.42-.1.49-.35.77-.88.77-2.51,0-5.02,0-7.52-.01-.71,0-.98-.34-.98-1.05.03-2.34.01-4.69.01-7.03h.12Z"/>
    <path class="cls-1" d="M74.43,12.99c.4-1.39.74-2.57,1.08-3.75.76-2.69,1.52-5.38,2.27-8.08.12-.44.3-.74.79-.78.77-.07,1.05.22.85.97-.74,2.67-1.51,5.34-2.26,8.01-.54,1.93-1.11,3.87-1.58,5.82-.2.81-.68.85-1.35.87-.71.03-.94-.35-1.08-.92-.61-2.5-1.23-4.99-1.85-7.48-.52-2.1-1.04-4.2-1.55-6.29-.08-.32-.32-.76.24-.87.51-.11,1.1-.27,1.44.34.13.24.2.52.26.79.85,3.61,1.69,7.23,2.53,10.84.03.11.09.22.22.55"/>
    <path class="cls-1" d="M33.76,7.18c0,2.06.02,4.12-.01,6.18,0,.56.16.75.74.75,2,0,3.99.04,5.99.07.57,0,1.1.03,1.1.82,0,.73-.27,1-1.11,1.01-2.56,0-5.12.01-7.67,0-1.23-.01-1.39-.15-1.39-1.36,0-2.85.07-5.7.1-8.56.02-1.5.04-3,.02-4.5-.02-.85.51-.86,1.11-.87.62,0,1.14.08,1.13.88-.01,1.86,0,3.72,0,5.58h0Z"/>
    <path class="cls-1" d="M46.16,8.12c0-2.37,0-4.74,0-7.11,0-.61.23-.91.87-.82.18.02.36,0,.54,0,.93,0,1.07.13,1.05,1.07-.03,2.47-.1,4.94-.13,7.41-.02,2.09.01,4.17-.02,6.26,0,.33-.19.88-.4.94-.49.14-1.05.1-1.56,0-.13-.02-.24-.52-.24-.8-.02-2.32-.01-4.64-.01-6.95h-.09"/>
  </g>
</svg>