<?xml version="1.0" encoding="UTF-8"?>
<svg id="Layer_2" data-name="Layer 2" xmlns="http://www.w3.org/2000/svg" viewBox="0 0 41.07 27.09">
  <defs>
    <style>
      .cls-1 {
        fill: #212121;
      }
    </style>
  </defs>
  <g id="Layer_1-2" data-name="Layer 1">
    <g>
      <path class="cls-1" d="M2.13,17.8c-.74-1.46-1.21-2.99-1.4-4.59-.19-1.6,0-3.18.56-4.73.67-1.62,1.64-3.05,2.88-4.29,1.25-1.25,2.68-2.2,4.3-2.88,1.55-.56,3.13-.74,4.74-.55,1.61.19,3.14.66,4.6,1.4,1.46.74,2.8,1.7,4.03,2.88,1.23,1.18,2.23,2.49,3,3.94.78,1.45,1.28,2.97,1.52,4.56.24,1.59.1,3.16-.42,4.71-.67,1.8-1.68,3.36-3.02,4.68-1.34,1.33-2.89,2.32-4.64,3-1.55.52-3.13.66-4.74.42-1.61-.23-3.13-.74-4.57-1.51-1.44-.77-2.76-1.77-3.95-3-1.19-1.22-2.16-2.56-2.9-4.02M12.91,27.08c1.5.06,2.93-.11,4.32-.51,1.38-.39,2.68-.99,3.88-1.8,1.2-.81,2.25-1.78,3.14-2.91.89-1.13,1.59-2.41,2.09-3.82.51-1.41.76-2.92.76-4.51s-.25-3.09-.76-4.49c-.51-1.4-1.2-2.67-2.09-3.8-.89-1.13-1.93-2.1-3.12-2.91-1.19-.81-2.48-1.41-3.86-1.8C15.88.12,14.44-.05,12.93.01c-1.51.06-3,.39-4.49.99-.86.34-1.65.75-2.4,1.24-.74.49-1.44,1.07-2.09,1.72-1.15,1.14-2.04,2.4-2.67,3.77-.63,1.37-1.03,2.77-1.2,4.21-.17,1.44-.11,2.87.18,4.29.29,1.43.79,2.77,1.5,4.02.71,1.26,1.62,2.39,2.75,3.4s2.43,1.82,3.91,2.42c1.48.61,2.97.94,4.47.99"/>
      <path class="cls-1" d="M33.54,7c.67.54,1.35,1.07,2.02,1.58.67.52,1.33.95,1.97,1.31s1.24.51,1.8.44c.02-.02.12-.04.29-.07.17-.02.38-.1.62-.23l-.14-.27c-.38.25-.77.34-1.16.27-.39-.07-.8-.23-1.21-.49s-.85-.58-1.3-.98c-.45-.39-.93-.79-1.43-1.2-.51-.4-1.04-.79-1.6-1.16s-1.17-.67-1.82-.89V.43h8.03c.38.02.67.19.88.51.2.32.3.83.3,1.55h.27V.16h-12.45v.27c.38,0,.67.04.88.14.2.09.35.2.45.34.1.14.16.29.17.47.01.18.02.37.02.57v3.1c-.36-.02-.66,0-.89.05-.24.06-.46.11-.66.15l.07.3c.23-.07.45-.12.68-.17.22-.04.49-.04.81,0v19.93c0,.2,0,.39-.02.57-.01.18-.07.34-.17.47-.1.14-.25.24-.45.32-.2.08-.5.12-.88.12v.3h4.49v-.3c-.59,0-.98-.11-1.2-.32-.21-.21-.32-.51-.32-.89V5.78c.63.27,1.28.67,1.96,1.21"/>
    </g>
  </g>
</svg>