<?xml version="1.0" encoding="UTF-8"?>
<svg id="Layer_2" data-name="Layer 2" xmlns="http://www.w3.org/2000/svg" viewBox="0 0 64.93 33.54">
  <defs>
    <style>
      .cls-1 {
        fill: #212121;
      }
    </style>
  </defs>
  <g id="Layer_1-2" data-name="Layer 1">
    <g>
      <path class="cls-1" d="M8.65,18.06c-.48.87-.97,1.93-1.47,3.17-.44,1.09-.84,1.93-1.21,2.53-.37.6-.71,1.03-1.03,1.31-.32.27-.61.44-.87.49-.26.05-.48.08-.66.08-.59,0-1.09-.11-1.51-.34-.41-.23-.73-.52-.95-.88-.22-.36-.35-.77-.39-1.22-.04-.46,0-.92.13-1.4.17-.63.41-1.49.72-2.58.3-1.09.64-2.29,1.01-3.59.37-1.31.75-2.66,1.15-4.07.39-1.4.77-2.74,1.13-4.02.36-1.27.68-2.41.97-3.41.28-1,.5-1.76.65-2.29l4.03,14.5c-.65.28-1.22.86-1.7,1.73M14.34,25.54c-1.16-4.14-2.12-7.6-2.9-10.39-.78-2.79-1.41-5.06-1.9-6.81-.49-1.75-.86-3.09-1.11-4-.25-.91-.43-1.57-.54-1.96-.11-.39-.17-.62-.18-.68-.01-.07-.02-.13-.02-.2,0-.24.08-.42.23-.56.15-.13.45-.2.88-.2v-.29h-4.09v.29c.46,0,.79.05,1,.16.21.11.35.24.44.39-.98,3.46-1.82,6.4-2.5,8.8-.69,2.41-1.26,4.42-1.72,6.04-.46,1.62-.81,2.9-1.06,3.82-.25.93-.44,1.64-.57,2.16-.13.51-.21.86-.24,1.05-.03.18-.05.34-.05.47-.02.39.03.78.15,1.16.12.38.3.72.56,1.01.25.29.58.53.98.72.4.19.87.28,1.39.28.48,0,.91-.11,1.29-.33.38-.22.74-.55,1.06-1.01.33-.46.65-1.03.98-1.72.33-.69.68-1.49,1.05-2.4.54-1.37,1.04-2.44,1.47-3.22.44-.77.94-1.28,1.51-1.52.39,1.46.73,2.69,1.02,3.69.28,1,.52,1.83.7,2.48.19.65.33,1.16.43,1.53.1.37.17.65.23.85.05.2.09.33.1.41s.02.15.02.21c0,.22-.08.36-.25.44-.16.08-.46.11-.9.11v.29h4.06v-.29c-.52,0-.88-.07-1.08-.2-.2-.13-.34-.34-.43-.62"/>
      <path class="cls-1" d="M21.67,13.39c-.44.44-.78.91-1.05,1.44V.75h2.81c1.03,0,1.9.18,2.62.55.72.37,1.28.85,1.69,1.44.4.59.66,1.25.77,1.99.11.74.07,1.49-.11,2.24-.18.75-.52,1.48-1,2.17-.48.7-1.1,1.29-1.87,1.76-.7.39-1.39.78-2.08,1.16s-1.28.82-1.78,1.32M47.59,32.3c-2.2.72-4.29,1.01-6.25.88-.92-.09-1.81-.26-2.67-.51-.86-.25-1.68-.6-2.47-1.06-1.59-.87-3.07-2.13-4.42-3.79-1.27-1.5-2.42-3.31-3.47-5.42-.74-1.48-1.43-3.09-2.06-4.82-.63-1.73-1.23-3.64-1.8-5.73.63-.35,1.27-.71,1.9-1.08.63-.37,1.21-.8,1.72-1.27.51-.48.93-1.04,1.24-1.68.32-.64.47-1.42.47-2.33,0-.85-.17-1.58-.52-2.21-.35-.62-.81-1.14-1.39-1.55-.58-.41-1.25-.72-2.01-.93-.76-.21-1.57-.31-2.42-.31h-5.69v.26c.37,0,.65.04.85.13.2.09.34.2.44.33.1.13.15.28.16.46.01.17.02.36.02.55v22.66c0,.2,0,.38-.02.56-.01.17-.07.33-.16.46-.1.13-.25.23-.44.31-.2.08-.48.11-.85.11v.29h4.39v-.29c-.37,0-.65-.04-.85-.11-.2-.08-.34-.18-.44-.31-.1-.13-.15-.28-.16-.46-.01-.17-.02-.36-.02-.56l-.03-9.14c.17-.76.51-1.39,1.01-1.89.5-.5,1.08-.97,1.74-1.4,1.11,4.05,2.45,7.54,4.03,10.48.52,1,1.18,2.09,1.98,3.27.8,1.18,1.74,2.28,2.85,3.32,1.1,1.03,2.37,1.93,3.81,2.68,1.44.75,3.07,1.19,4.88,1.32.2.02.39.03.57.03h.54c1.77,0,3.66-.32,5.66-.95l.13-.07-.1-.26-.13.03Z"/>
      <path class="cls-1" d="M31.97,1.26c.18-.29.46-.46.84-.51h4.12v24.1c0,.2-.01.38-.03.56-.02.17-.08.33-.16.47-.09.14-.24.25-.44.33-.21.08-.49.11-.83.11v.29h4.35v-.29c-.57,0-.96-.09-1.16-.28-.21-.18-.31-.45-.31-.8V.75h4.12c.37.04.65.21.83.51.19.29.28.79.28,1.49h.29V.49h-12.47v2.25h.29c0-.7.09-1.19.28-1.49"/>
      <path class="cls-1" d="M64.91,18.52c-.09-1.07-.44-1.97-1.05-2.69-.61-.73-1.39-1.35-2.32-1.86-.94-.51-1.99-.94-3.16-1.29-1.17-.35-2.35-.68-3.55-1-1.2-.32-2.36-.64-3.47-.98-1.11-.34-2.1-.74-2.95-1.22-.85-.48-1.51-1.06-1.98-1.75-.47-.68-.65-1.53-.54-2.53.13-.94.45-1.72.97-2.37.51-.64,1.15-1.16,1.91-1.55.76-.39,1.61-.66,2.55-.82.94-.15,1.9-.2,2.9-.13.99.07,1.98.23,2.98.49s1.91.6,2.77,1.01c.68.37,1.22.75,1.62,1.14.4.39.71.78.92,1.16.21.38.35.72.43,1.03.08.3.11.53.11.68v.26h.29V1.76h-.29c0,.59-.15.91-.46.98-.31.07-.68-.05-1.11-.36-.89-.61-1.88-1.1-2.96-1.49-1.08-.38-2.18-.64-3.31-.78-1.12-.14-2.23-.15-3.31-.03-1.08.12-2.06.38-2.93.78-.87.4-1.61.95-2.21,1.65-.6.7-.98,1.55-1.13,2.55-.11.89-.11,1.71,0,2.43.11.73.45,1.41,1.02,2.04.57.63,1.42,1.23,2.57,1.78,1.15.55,2.7,1.09,4.66,1.62,1.24.33,2.48.66,3.7.99,1.22.34,2.33.75,3.34,1.24,1,.49,1.84,1.09,2.52,1.8.68.71,1.07,1.6,1.18,2.66-.02.87-.24,1.74-.67,2.6-.42.86-1.04,1.63-1.85,2.3s-1.79,1.22-2.96,1.65c-1.17.42-2.49.64-3.98.64-1.68-.02-3.09-.23-4.22-.62-1.14-.39-2.06-.83-2.77-1.32-.71-.49-1.24-.97-1.6-1.45-.36-.48-.58-.84-.67-1.08h-.29v4.34h.29v-.46c0-.22.03-.41.1-.59.07-.17.18-.31.34-.41.16-.1.41-.08.74.05,1.86.78,3.59,1.31,5.2,1.57,1.61.26,3.1.32,4.45.16,1.35-.15,2.55-.48,3.6-1,1.05-.51,1.92-1.15,2.63-1.91.71-.76,1.23-1.62,1.57-2.58.34-.96.46-1.96.38-3.01"/>
    </g>
  </g>
</svg>