<?xml version="1.0" encoding="UTF-8"?>
<svg id="Layer_2" data-name="Layer 2" xmlns="http://www.w3.org/2000/svg" viewBox="0 0 158.42 33.2">
  <defs>
    <style>
      .cls-1 {
        fill: #212121;
      }
    </style>
  </defs>
  <g id="Layer_1-2" data-name="Layer 1">
    <g>
      <path class="cls-1" d="M43.18,17.69c-.66,1.74-1.63,3.25-2.93,4.54-1.3,1.28-2.8,2.25-4.5,2.9-1.51.5-3.04.64-4.6.41-1.56-.23-3.04-.72-4.43-1.47-1.23-.66-2.37-1.49-3.41-2.49.82-.99,1.49-2.09,1.99-3.3h-.33c-.47,1.11-1.1,2.14-1.87,3.09-.07-.07-.14-.13-.2-.2-1.16-1.19-2.09-2.49-2.81-3.9-.72-1.41-1.17-2.9-1.36-4.46-.19-1.56,0-3.09.54-4.59.49-1.18,1.15-2.27,1.96-3.25,1,.97,1.84,2.03,2.53,3.18h1.54c-.66-1.59-1.6-3-2.85-4.24-.04-.04-.08-.07-.12-.11,1.15-1.08,2.45-1.93,3.9-2.53,1.51-.54,3.04-.72,4.6-.54,1.56.18,3.05.64,4.47,1.35,1.42.72,2.72,1.65,3.91,2.79,1.19,1.14,2.16,2.42,2.91,3.82.75,1.4,1.24,2.88,1.47,4.42.23,1.55.09,3.07-.41,4.57M17.73,25.2c-1.51.5-3.03.64-4.58.41-1.55-.23-3.03-.72-4.43-1.47-1.41-.75-2.68-1.72-3.83-2.91-1.15-1.19-2.08-2.49-2.8-3.9-.72-1.41-1.17-2.9-1.36-4.46-.19-1.55,0-3.09.54-4.59.65-1.57,1.59-2.96,2.8-4.16,1.21-1.21,2.6-2.14,4.17-2.79,1.44-.52,2.91-.71,4.4-.56,1.49.15,2.93.56,4.32,1.21,1.38.65,2.67,1.52,3.85,2.6.07.06.13.12.19.18-.71.85-1.3,1.77-1.74,2.74-.61,1.33-1,2.69-1.16,4.08-.16,1.39-.1,2.78.18,4.16.28,1.38.77,2.68,1.46,3.9.6,1.06,1.35,2.03,2.25,2.91-1.2,1.15-2.62,2.03-4.26,2.64M41.52,5.07c-.86-1.1-1.87-2.04-3.03-2.82-1.16-.78-2.4-1.37-3.75-1.75-1.34-.38-2.74-.54-4.2-.49-1.46.05-2.91.38-4.35.96-.83.33-1.6.73-2.32,1.21-.62.41-1.21.88-1.76,1.41-1.02-.96-2.13-1.71-3.32-2.26-1.32-.61-2.68-1-4.07-1.16-1.4-.16-2.79-.11-4.17.16-1.39.27-2.69.76-3.91,1.45-1.22.7-2.32,1.59-3.3,2.68-.98,1.09-1.77,2.35-2.36,3.79C.39,9.69.07,11.14.01,12.6c-.05,1.46.11,2.86.49,4.19.38,1.34.96,2.59,1.75,3.75.79,1.16,1.72,2.18,2.81,3.04,1.09.86,2.32,1.53,3.7,2.02,1.38.49,2.84.73,4.39.73,1.33,0,2.62-.2,3.86-.59,1.24-.39,2.39-.93,3.45-1.63.62-.41,1.19-.87,1.73-1.37.07.07.14.13.21.2,1.09.98,2.36,1.76,3.8,2.35,1.44.59,2.88.91,4.34.96,1.45.05,2.85-.11,4.19-.49s2.6-.96,3.76-1.75c1.17-.78,2.18-1.72,3.04-2.82.86-1.1,1.54-2.33,2.03-3.71.49-1.37.74-2.83.74-4.38s-.25-3-.74-4.36c-.49-1.36-1.17-2.59-2.03-3.69"/>
      <path class="cls-1" d="M58.59.44c.68,0,1.08.13,1.23.39.14.26.21.61.21,1.04v21.16L48.44.15h-3.11v.29c.37,0,.65.04.85.13.2.09.34.2.44.33.1.13.15.28.16.46.01.17.02.36.02.55v22.63c0,.43-.07.79-.21,1.06-.14.27-.55.41-1.23.41v.26h3.21v-.26c-.37,0-.65-.04-.85-.13-.2-.09-.34-.2-.44-.33-.1-.13-.15-.28-.16-.46-.01-.17-.02-.36-.02-.55V.73l12.93,25.54h.29V1.88c0-.17,0-.35.02-.52.01-.17.07-.33.16-.46.1-.13.24-.24.44-.33.2-.09.48-.13.85-.13V.15h-3.21v.29Z"/>
      <path class="cls-1" d="M65.63.41c.35,0,.63.04.83.13.21.09.35.2.44.33.09.13.14.28.16.46.02.17.03.36.03.55v20.74c.02,1.35-.11,2.56-.39,3.62-.13.46-.29.91-.49,1.36-.2.45-.45.86-.75,1.24-.3.38-.67.7-1.1.95-.43.25-.92.41-1.49.47-.11,0-.21,0-.3.02-.09.01-.18.02-.29.02v.26c1.46,0,2.66-.34,3.6-1.01.81-.57,1.42-1.38,1.83-2.45.39-.93.62-1.92.69-2.96.07-1.03.1-1.93.1-2.7V1.49c.02-.28.1-.52.25-.72.14-.2.46-.32.96-.36h.23V.15h-4.32v.26Z"/>
      <path class="cls-1" d="M97.11,13.05c-.44.44-.79.91-1.05,1.44V.41h2.81c1.03,0,1.9.18,2.62.55.72.37,1.28.85,1.68,1.44.4.59.66,1.25.77,1.99.11.74.07,1.49-.11,2.24-.19.75-.52,1.48-1,2.17-.48.7-1.1,1.29-1.87,1.76-.7.39-1.39.78-2.08,1.16s-1.28.82-1.78,1.32M123.04,31.96c-2.2.72-4.29,1.01-6.25.88-.92-.09-1.81-.26-2.67-.51-.86-.25-1.68-.6-2.47-1.06-1.59-.87-3.07-2.13-4.42-3.79-1.27-1.5-2.42-3.31-3.47-5.42-.74-1.48-1.43-3.09-2.06-4.82s-1.23-3.64-1.8-5.73c.63-.35,1.26-.71,1.9-1.08.63-.37,1.2-.8,1.72-1.27.51-.48.93-1.04,1.24-1.68.32-.64.48-1.42.48-2.33,0-.85-.18-1.58-.52-2.21-.35-.62-.81-1.14-1.39-1.55-.58-.41-1.25-.72-2.01-.93-.77-.21-1.57-.31-2.42-.31h-5.69v.26c.37,0,.65.04.85.13.2.09.34.2.44.33.1.13.15.28.16.46.01.17.02.36.02.55v22.66c0,.2,0,.38-.02.56-.01.17-.07.33-.16.46-.1.13-.24.23-.44.31-.2.08-.48.11-.85.11v.29h4.39v-.29c-.37,0-.65-.04-.85-.11-.2-.08-.34-.18-.44-.31-.1-.13-.15-.28-.16-.46-.01-.17-.02-.36-.02-.56l-.03-9.14c.17-.76.51-1.39,1.01-1.89.5-.5,1.08-.97,1.73-1.4,1.11,4.05,2.46,7.54,4.03,10.48.52,1,1.18,2.09,1.98,3.27.8,1.18,1.74,2.28,2.85,3.32s2.37,1.93,3.81,2.68c1.44.75,3.07,1.19,4.88,1.32.2.02.39.03.57.03h.54c1.77,0,3.65-.32,5.66-.95l.13-.07-.1-.26-.13.03Z"/>
      <path class="cls-1" d="M112.5,25.98c-.57,0-.95-.09-1.16-.28s-.31-.45-.31-.8V1.52c0-.35.1-.62.31-.82.21-.2.59-.29,1.16-.29V.15h-4.35v.26c.37,0,.65.04.85.13.2.09.34.2.44.33s.15.28.16.46c.01.18.02.36.02.55v22.67c0,.2,0,.38-.02.55-.01.17-.07.33-.16.46-.1.13-.24.23-.44.31-.2.08-.48.11-.85.11v.29h4.35v-.29Z"/>
      <path class="cls-1" d="M128.27.44c.68,0,1.08.13,1.23.39.14.26.21.61.21,1.04v21.16L118.13.15h-3.11v.29c.37,0,.65.04.85.13.2.09.34.2.44.33.1.13.15.28.16.46.01.17.02.36.02.55v22.63c0,.43-.07.79-.21,1.06-.14.27-.55.41-1.23.41v.26h3.21v-.26c-.37,0-.65-.04-.85-.13-.2-.09-.34-.2-.44-.33-.1-.13-.15-.28-.16-.46-.01-.17-.02-.36-.02-.55V.73l12.93,25.54h.29V1.88c0-.17,0-.35.02-.52.01-.17.07-.33.16-.46.1-.13.24-.24.44-.33.2-.09.48-.13.85-.13V.15h-3.21v.29Z"/>
      <path class="cls-1" d="M156.86,11.56c-.4-.23-.8-.36-1.18-.41-.38-.04-.63-.07-.74-.07-.89,0-1.87.2-2.93.59-1.06.39-2.11.83-3.16,1.31-1.05.48-2.05.91-3.01,1.31-.96.39-1.79.59-2.49.59-.5,0-.91-.12-1.23-.38-.32-.25-.54-.67-.67-1.26l-.26.03c.04.22.11.44.2.65.09.22.21.42.38.6s.37.34.62.46c.25.12.56.18.93.18.7,0,1.5-.18,2.4-.54s1.83-.75,2.78-1.17c.95-.43,1.87-.82,2.75-1.18.88-.36,1.64-.54,2.27-.54.68,0,1.26.14,1.75.42.49.28.89.66,1.21,1.13.32.47.54.99.69,1.57.14.58.21,1.16.21,1.75,0,1-.18,1.88-.52,2.64-.37.7-.86,1.42-1.47,2.17-.61.75-1.34,1.45-2.18,2.09-.84.64-1.79,1.17-2.85,1.58-1.06.41-2.21.62-3.45.62-1.18,0-2.33-.18-3.47-.55-1.13-.37-2.22-.88-3.26-1.52-1.04-.64-1.99-1.4-2.86-2.29-.87-.88-1.63-1.84-2.27-2.87-.64-1.03-1.14-2.12-1.51-3.27-.36-1.14-.54-2.29-.54-3.45,0-1.61.34-3.09,1.03-4.44.69-1.35,1.57-2.52,2.64-3.49,1.07-.98,2.26-1.74,3.57-2.29,1.31-.54,2.57-.82,3.8-.82s2.38.19,3.55.57c1.17.38,2.28.9,3.34,1.57,1.06.66,2.04,1.45,2.93,2.37.89.91,1.66,1.9,2.29,2.97h1.54c-.46-1.13-1.09-2.19-1.88-3.18-.8-.99-1.72-1.85-2.77-2.58-1.05-.73-2.2-1.31-3.47-1.73-1.27-.42-2.62-.64-4.06-.64-1.83,0-3.55.34-5.14,1.03-1.59.69-2.98,1.63-4.17,2.83-1.19,1.2-2.13,2.59-2.82,4.18-.69,1.59-1.03,3.29-1.03,5.09s.35,3.54,1.05,5.13c.7,1.59,1.64,2.98,2.83,4.16,1.19,1.19,2.58,2.12,4.17,2.81,1.59.69,3.29,1.03,5.11,1.03,1.33,0,2.58-.18,3.75-.54,1.17-.36,2.23-.84,3.17-1.44.95-.6,1.79-1.28,2.54-2.06.74-.77,1.37-1.58,1.88-2.43.51-.85.9-1.7,1.16-2.56.26-.86.39-1.67.39-2.43,0-.94-.16-1.67-.48-2.19-.32-.52-.68-.9-1.08-1.13"/>
      <path class="cls-1" d="M86.9.4c.65,0,1.06.13,1.23.39.16.25.24.6.24,1.05,0,0,.01,0,.02,0v16.17c0,3.4-.99,5.63-3.11,7.01-2.73,1.77-5.81.85-7.43-.42-.31-.26-.58-.53-.8-.83-.94-1.28-1.12-2.94-1.18-4.57-.05-1.43.06-12.03.11-16.65,0,0,0,0,.01,0v-1.01c.02-.3.11-.57.28-.8s.56-.34,1.19-.34V.11h-4.35v.29c.35,0,.63.04.83.13.21.09.36.2.44.33.09.13.14.28.16.46.01.13.02.26.03.4-.02,3.99-.05,15.64,0,17.21.07,1.82.45,3.78,1.65,5.22,1.38,1.65,3.6,2.12,5.66,2.12.01,0,.03,0,.05,0,.01,0,.03,0,.04,0,.4,0,.81-.04,1.23-.12.02.08.03.05.03,0,.73-.15,1.47-.43,2.18-.9,2.21-1.44,3.24-3.74,3.24-7.24V1.81h0c0-.17,0-.34.02-.5.01-.17.07-.33.16-.47.1-.14.24-.25.42-.33.19-.08.46-.11.84-.11V.11h-3.21v.29Z"/>
    </g>
  </g>
</svg>