<?xml version="1.0" encoding="UTF-8"?>
<svg id="Layer_2" data-name="Layer 2" xmlns="http://www.w3.org/2000/svg" viewBox="0 0 120.46 27.09">
  <defs>
    <style>
      .cls-1 {
        fill: #212121;
      }
    </style>
  </defs>
  <g id="Layer_1-2" data-name="Layer 1">
    <g>
      <path class="cls-1" d="M18.31,15.82c-.61-.73-1.39-1.35-2.32-1.86-.94-.51-1.99-.94-3.16-1.29-1.17-.35-2.35-.68-3.55-1-1.2-.32-2.36-.64-3.47-.98-1.11-.34-2.09-.75-2.95-1.22s-1.51-1.06-1.98-1.75c-.47-.69-.65-1.53-.54-2.53.13-.93.45-1.73.97-2.37.51-.64,1.15-1.16,1.91-1.55.76-.39,1.61-.66,2.55-.82.94-.15,1.9-.2,2.9-.13.99.07,1.99.23,2.98.49.99.26,1.91.6,2.77,1.01.68.37,1.22.75,1.62,1.14.4.39.71.78.92,1.16.21.38.35.72.42,1.03.08.31.12.53.12.69v.26h.29V1.76h-.29c0,.59-.15.91-.46.98-.31.07-.68-.05-1.11-.36-.89-.61-1.88-1.1-2.96-1.49-1.08-.38-2.18-.64-3.31-.78-1.12-.14-2.23-.15-3.31-.03-1.08.12-2.06.38-2.93.78-.87.4-1.61.95-2.21,1.65C.61,3.21.23,4.06.08,5.06-.03,5.96-.03,6.77.08,7.5c.11.73.45,1.41,1.01,2.04.57.63,1.42,1.22,2.57,1.78,1.14.55,2.7,1.09,4.66,1.62,1.24.33,2.48.66,3.7,1,1.22.34,2.33.75,3.34,1.24,1,.49,1.84,1.09,2.52,1.8.68.71,1.07,1.6,1.18,2.66-.02.87-.25,1.74-.67,2.6-.43.86-1.04,1.63-1.85,2.3-.81.68-1.8,1.23-2.96,1.65-1.17.42-2.49.64-3.98.64-1.68-.02-3.09-.23-4.22-.62-1.13-.39-2.06-.83-2.77-1.32s-1.24-.97-1.6-1.45c-.36-.48-.58-.84-.67-1.08H.05v4.34h.29v-.46c0-.22.03-.41.1-.59.07-.17.18-.31.34-.41.16-.1.41-.08.74.05,1.85.78,3.59,1.31,5.2,1.57,1.61.26,3.1.32,4.45.16,1.35-.15,2.55-.48,3.6-1,1.05-.51,1.93-1.15,2.64-1.91.71-.76,1.23-1.62,1.57-2.58.34-.96.46-1.96.38-3-.09-1.07-.44-1.97-1.05-2.7"/>
      <path class="cls-1" d="M26.46,21.51c-1.16-1.19-2.1-2.49-2.82-3.9s-1.17-2.9-1.36-4.46c-.19-1.56,0-3.09.54-4.59.65-1.57,1.59-2.96,2.8-4.16s2.6-2.14,4.17-2.79c1.13-.41,2.29-.61,3.45-.6,1.17.01,2.31.19,3.44.54,1.12.35,2.2.84,3.24,1.49,1.04.64,1.99,1.39,2.86,2.24-.79.98-1.43,2.07-1.93,3.27-.48,1.2-.78,2.43-.9,3.69-.12,1.26-.06,2.51.18,3.76.24,1.24.65,2.43,1.24,3.58.59,1.14,1.35,2.19,2.29,3.15-1.26,1.24-2.72,2.17-4.35,2.77-1.5.5-3.04.64-4.6.41-1.56-.23-3.04-.72-4.43-1.47-1.4-.75-2.67-1.72-3.83-2.91M45.22,8.23c.63,1,1.12,2.05,1.47,3.14s.54,2.2.57,3.33c.03,1.13-.14,2.25-.51,3.36-.24.63-.52,1.24-.85,1.81-.33.58-.71,1.13-1.14,1.65-.85-.87-1.59-1.82-2.23-2.86-.63-1.03-1.12-2.11-1.46-3.23-.34-1.12-.51-2.26-.52-3.43-.01-1.16.19-2.31.61-3.45.24-.57.51-1.1.82-1.62.3-.51.65-1.01,1.05-1.49.83.85,1.56,1.78,2.19,2.78M36.17,26.54c1.39-.14,2.74-.51,4.08-1.11,1.33-.6,2.55-1.44,3.66-2.53,1.09,1.07,2.3,1.9,3.62,2.5s2.67.97,4.04,1.13c1.38.15,2.75.09,4.12-.18,1.38-.27,2.66-.75,3.86-1.44,1.2-.69,2.29-1.56,3.27-2.61.98-1.06,1.77-2.29,2.36-3.71h-.29c-.68,1.53-1.63,2.9-2.86,4.12-1.23,1.22-2.69,2.14-4.37,2.77-1.11.37-2.24.54-3.39.51-1.14-.03-2.26-.22-3.35-.57-1.09-.35-2.14-.84-3.14-1.47-1-.63-1.93-1.37-2.78-2.22,1.05-1.28,1.81-2.7,2.29-4.23.48-1.53.68-3.08.61-4.64-.08-1.56-.43-3.07-1.06-4.56-.63-1.48-1.54-2.82-2.72-4.02,1.22-1.18,2.56-2.07,4.03-2.68,1.44-.52,2.91-.71,4.42-.56,1.51.15,2.95.56,4.34,1.21,1.39.65,2.67,1.52,3.85,2.6,1.18,1.08,2.16,2.27,2.95,3.58h1.54c-.59-1.42-1.37-2.66-2.36-3.72-.98-1.07-2.08-1.94-3.29-2.63-1.21-.69-2.5-1.17-3.86-1.45-1.36-.28-2.73-.35-4.11-.2-1.38.15-2.72.53-4.04,1.13-1.32.6-2.54,1.43-3.65,2.5-1.13-1.09-2.37-1.93-3.7-2.53-1.33-.6-2.69-.97-4.07-1.11-1.39-.14-2.77-.07-4.14.23s-2.67.79-3.88,1.49c-1.21.7-2.3,1.58-3.27,2.66-.97,1.08-1.74,2.32-2.31,3.74-.63,1.59-.95,3.24-.95,4.95s.32,3.36.95,4.95c.59,1.44,1.37,2.69,2.34,3.77.97,1.08,2.06,1.97,3.27,2.66,1.21.7,2.5,1.19,3.88,1.47,1.37.28,2.75.35,4.14.21"/>
      <path class="cls-1" d="M73.1,26.32c-.57,0-.95-.09-1.16-.28-.21-.18-.31-.45-.31-.8V1.86c0-.35.1-.62.31-.82.21-.2.59-.29,1.16-.29v-.26h-4.35v.26c.37,0,.65.04.85.13.2.09.34.2.44.33.1.13.15.28.16.46.01.18.02.36.02.55v22.67c0,.2,0,.38-.02.55-.01.18-.07.33-.16.46-.1.13-.25.23-.44.31-.2.08-.48.11-.85.11v.29h4.35v-.29Z"/>
      <path class="cls-1" d="M76.72,5.29c-.25.04-.48.09-.67.13l.1.29c.22-.07.44-.12.65-.16.22-.04.48-.04.79,0v19.33c0,.35-.05.67-.16.95-.11.28-.47.45-1.08.49h-.23v.29h11.95v-2.29h-.26c0,.7-.1,1.2-.3,1.5-.2.31-.48.47-.85.49h-7.66V5.94c.61.28,1.24.68,1.9,1.19.65.51,1.31,1.02,1.96,1.52.65.5,1.29.93,1.91,1.27.62.35,1.2.49,1.72.42.04-.02.15-.04.31-.07.16-.02.37-.1.61-.23l-.16-.26c-.37.24-.74.33-1.11.26s-.76-.22-1.16-.47c-.4-.25-.82-.57-1.26-.95-.44-.38-.9-.77-1.39-1.16-.49-.39-1.01-.77-1.56-1.13-.55-.36-1.13-.64-1.77-.83V.78h7.79c.37.02.65.18.83.49.19.31.28.81.28,1.5h.3V.49h-12.08v.29c.35,0,.63.04.83.11.21.08.35.18.44.31.09.13.14.28.16.46.02.17.03.36.03.55v3.04c-.33-.02-.62-.01-.87.03"/>
      <path class="cls-1" d="M91.22,1.26c.18-.29.46-.46.83-.51h4.12v24.1c0,.2-.01.38-.03.56-.02.17-.08.33-.16.47-.09.14-.23.25-.44.33-.21.08-.49.11-.83.11v.29h4.35v-.29c-.57,0-.95-.09-1.16-.28-.21-.18-.31-.45-.31-.8V.75h4.12c.37.04.65.21.83.51.19.29.28.79.28,1.49h.29V.49h-12.47v2.25h.29c0-.7.09-1.19.28-1.49"/>
      <path class="cls-1" d="M117.55.78c.57,0,.86.13.88.39.02.26-.07.62-.26,1.08l-4.62,11.63-4.68-11.69c-.17-.46-.25-.81-.21-1.06.03-.25.34-.38.93-.38v-.29h-4.09v.29c.37,0,.67.04.88.11.22.08.39.18.52.31.13.13.23.28.31.46.08.17.15.36.21.55,0-.02.03.04.08.18.05.14.16.42.33.83.16.41.43,1.07.79,1.96.36.89.84,2.09,1.44,3.58.6,1.49,1.36,3.38,2.27,5.67v10.48c0,.2-.01.38-.03.55-.02.18-.08.33-.16.46-.09.13-.24.23-.44.31-.21.08-.49.11-.83.11v.29h4.32v-.29c-.57,0-.95-.09-1.15-.28-.2-.18-.29-.45-.29-.8v-10.91l5.07-12.8c.13-.26.32-.45.56-.57.24-.12.6-.18,1.08-.18v-.29h-2.91v.29Z"/>
    </g>
  </g>
</svg>