<?xml version="1.0" encoding="UTF-8"?>
<svg id="Layer_2" data-name="Layer 2" xmlns="http://www.w3.org/2000/svg" viewBox="0 0 71.64 16.24">
  <defs>
    <style>
      .cls-1 {
        fill: #2f292a;
      }
    </style>
  </defs>
  <g id="Layer_1-2" data-name="Layer 1">
    <path class="cls-1" d="M65.45,12.01c.71-2.67,1.41-5.35,2.13-8.01.28-1.03.58-2.06.94-3.07.09-.24.44-.4.69-.57.07-.05.2-.01.3-.02,1.76-.05,1.84.14,1.85,1.9.02,3.21.16,6.41.24,9.62.02.94.04,1.88.02,2.83-.02.81-.31,1.01-1.19,1.01-.71,0-.83-.43-.84-1.01-.09-2.93-.2-5.85-.4-8.8-.1.36-.19.71-.29,1.07-.77,2.72-1.56,5.43-2.31,8.15-.22.8-.72.9-1.44.91-.73.01-.97-.38-1.14-.98-.85-3.01-1.73-6.02-2.6-9.02-.08-.28-.2-.55-.43-.81,0,1.47,0,2.93,0,4.4,0,1.81-.03,3.62,0,5.43.01.76-.35.96-1.03.96-.71,0-.96-.34-.95-.99.05-4.56.1-9.12.14-13.68,0-.68.32-.94.98-.97.93-.05,1.66.14,1.95,1.15.35,1.25.71,2.49,1.09,3.73.68,2.24,1.38,4.47,2.07,6.71.07.01.13.02.2.03"/>
    <path class="cls-1" d="M19.66,7.4s0,.06.01.1c.88-.11,1.78-.13,2.64-.33,1.1-.26,1.59-1.22,1.51-2.67-.06-1.06-.49-1.58-1.67-1.73-1.31-.16-2.64-.19-3.96-.27-.46-.03-.63.19-.62.65.03.86.01,1.73,0,2.59-.02,1.99-.07,1.79,1.78,1.68.1,0,.2,0,.31,0M15.28,9.47c.11-2.7.24-5.39.34-8.09.03-.66.32-.9.96-.88,1.86.05,3.75-.1,5.59.14,2.45.32,3.6,1.86,3.48,4.31-.04.8-.24,1.61-.48,2.38-.25.82-.97,1.2-1.72,1.51-.91.38-.92.44-.53,1.35.66,1.55,1.28,3.11,1.95,4.65.28.65.03,1.02-.56,1.26-.66.27-1.04.12-1.33-.56-.76-1.81-1.53-3.61-2.26-5.43-.21-.53-.51-.72-1.09-.71-2.01.02-2.01,0-2.08,1.97-.04,1.22-.11,2.44-.15,3.66-.02.71-.41.89-1.05.9-.64.01-1.03-.16-1.02-.89.01-1.86,0-3.72,0-5.58-.02,0-.04,0-.06,0"/>
    <path class="cls-1" d="M2.04,7.65h.11c0,1.71-.02,3.41.02,5.12,0,.25.25.7.41.72,1.2.1,2.4.15,3.6.14.67,0,1.07-.4,1.09-1.13.01-.58.1-1.17.11-1.75.01-2.37,0-4.74,0-7.11,0-1.05-.63-1.69-1.7-1.71-.97-.02-1.95.03-2.92,0-.58-.02-.74.18-.73.75.03,1.66.01,3.31.01,4.97M.12,7.95c0-2.22,0-4.43,0-6.65C.11.56.41.11,1.18.11c1.74,0,3.48-.08,5.21.07,1.52.13,2.67,1.44,2.71,2.96.08,3.11.14,6.22.1,9.33-.03,2.12-1.4,3.3-3.52,3.22-1.53-.06-3.07-.11-4.6-.16C.17,15.5,0,15.33,0,14.45,0,12.28,0,10.12,0,7.95h.12Z"/>
    <path class="cls-1" d="M47.48,9.3h2.83c-.42-1.71-.82-3.33-1.22-4.95-.05,0-.09,0-.14,0-.47,1.6-.95,3.2-1.47,4.95M53.03,16.02c-.81.22-1.11-.32-1.27-1.1-.17-.9-.41-1.78-.58-2.68-.08-.44-.3-.6-.73-.59-1.02.02-2.05.04-3.07.04-.49,0-.73.2-.85.68-.21.87-.46,1.72-.73,2.57-.2.64-1.96,1.02-2.36.51-.12-.15-.1-.49-.03-.71,1.23-3.88,2.48-7.76,3.72-11.64.19-.61.35-1.22.5-1.84.12-.49.15-1.08.79-1.17.72-.1,1.36.15,1.64.86.38.97.7,1.97.98,2.97,1.03,3.78,2.04,7.57,3.05,11.36.18.68.09.75-1.06.75"/>
    <path class="cls-1" d="M29.26,8.02c0-2.37,0-4.74,0-7.11,0-.57.15-.92.81-.91,1.79.02,3.58,0,5.36,0,.69,0,1.38.01,2.07.03.83.02,1.05.26,1.06,1.14.01.8-.2,1.05-1.04,1.06-1.74.02-3.48,0-5.22,0-1.21,0-1.21-.02-1.2,1.15,0,.84.02,1.68.01,2.52,0,.51.23.74.75.73.87-.02,1.74-.02,2.61.01.53.02,1.12-.01,1.11.81-.01.75-.43.93-1.1.93-.9,0-1.79.1-2.68.11-.45,0-.68.18-.68.62-.01,1.35-.04,2.7,0,4.05,0,.18.36.49.57.5,1.5.08,3.01.11,4.52.14.41.01.82,0,1.23.03.94.06,1.14.28,1.11,1.17-.03.78-.29,1.02-1.18,1.02-2.3,0-4.61,0-6.91,0-1.17,0-1.29-.13-1.29-1.26,0-2.24,0-4.49,0-6.73h.09Z"/>
  </g>
</svg>