<?xml version="1.0" encoding="UTF-8"?>
<svg id="Layer_2" data-name="Layer 2" xmlns="http://www.w3.org/2000/svg" viewBox="0 0 20.56 19.36">
  <defs>
    <style>
      .cls-1 {
        fill: #2f292a;
      }
    </style>
  </defs>
  <g id="Layer_1-2" data-name="Layer 1">
    <path class="cls-1" d="M9.15,5.79s-.03.05-.04.07c.05.05.1.1.15.16.06.07.11.14.16.21.08-.05.17-.09.22-.15.04-.05.05-.12.08-.19.09.11.17,0,.21-.03.11-.08.1-.24.01-.37-.04-.05-.07-.11-.1-.17,0-.01,0-.03,0-.05.04-.02.08-.03.14-.05-.13-.18-.1-.35-.02-.54.04-.1.1-.23-.01-.31-.19,0-.36,0-.52,0,0,.12,0,.22,0,.3.15.17.35.29.33.57-.07.05-.14.11-.23.18.03.13.05.25.08.36-.14.1-.29.13-.45,0M13.1,19.36c-.16-.04-.31.04-.44-.07-.02-.01-.05-.02-.06-.02-.21.14-.45.04-.67.06-.23.01-.46,0-.7,0-1.14-.01-2.27-.02-3.44-.03.05-.18.09-.33.29-.37-.02-.09-.09-.24-.05-.27.09-.08.05-.17.08-.25.1-.25.19-.5.28-.75.33-.95.66-1.91.99-2.86.05-.15.13-.29.15-.46.02-.25-.06-.48-.16-.72-.52.67-.97,1.39-1.64,1.92-.02-.01-.04-.03-.08-.07.02.23-.17.27-.29.35-.24.15-.49.27-.75.41-.07-.1-.15-.19-.23-.29-.03.02-.07.03-.07.04-.03.34-.12.42-.46.45-.19.02-.37.06-.57.09-.06-.13.04-.31-.17-.37.03.11.06.21.09.34-.23,0-.44.03-.64-.02-.18-.04-.36-.06-.54-.12-.13-.04-.26-.05-.35-.17-.05-.07-.08-.02-.12,0-.14.04-.26-.04-.37-.09-.43-.21-.86-.45-1.28-.68-.02-.01-.04-.03-.05-.04-.17-.15-.33-.31-.51-.44-.09-.06-.05-.21-.21-.24-.07-.01-.12-.15-.17-.23-.18-.3-.39-.58-.52-.9-.09-.22-.23-.45-.23-.7-.13-.12-.07-.22.04-.31.02-.02.03-.05.04-.08-.07-.14-.13-.02-.2,0-.03-.16-.07-.32-.08-.49-.01-.16,0-.32,0-.49,0-.09,0-.17.06-.26.03-.05-.06-.16-.05-.24.04-.28.09-.56.19-.83.07-.19.19-.37.27-.55.09-.19.2-.36.32-.53.15-.2.3-.39.5-.55.21-.17.4-.38.6-.58.05.14.12.25.29.3,0-.12.02-.23.03-.35-.08-.01-.14-.02-.19-.03.09-.08.17-.17.28-.27.07.06.15.14.22.21.06-.06.12-.11.18-.17,0-.12,0-.23,0-.36.16-.13.32-.28.5-.39.08-.05.21-.04.32-.05.09-.07-.14-.18.04-.24.01,0,.04,0,.04.01.11.21.11.2.29.15.06-.02.13-.03.21-.05-.06-.16.13-.32-.02-.5.25-.2.49-.4.76-.63.02.1.03.16.04.25.05,0,.11,0,.19.01,0-.16,0-.29,0-.45.22-.19.45-.39.69-.59.01.04.03.08.04.12q.33.02.34-.44c.15-.11.31-.23.46-.36.02.04.03.08.05.12.25-.1.28-.14.19-.31.34-.31.67-.64,1.04-.93.23-.18.43-.38.64-.57.18-.17.36-.34.56-.49.2-.15.33-.36.46-.57.09-.15.15-.33.34-.41.09-.04,0-.11.01-.14.08-.17.17-.34.26-.52.01-.02.02-.05.03-.05.19-.01.26-.22.43-.27q.08.2.03.31c.22.06.26.28.37.43.14.19.06.37.02.59.11-.04.18-.06.3-.1-.03.09-.05.14-.07.21.12-.02.2.06.25.18.03.07.07.15.12.19.09.07.09.13.03.21,0,0,.03.04.05.05.02-.02.03-.03.06-.06.06.08.11.16.16.24.11.18.25.36.41.48.26.19.45.45.69.64-.06.09-.12.17-.19.27-.07-.05-.13-.1-.22-.17-.03.02-.06.05-.1.06-.03.01-.07,0-.1.01-.04,0-.09,0-.13.01-.02,0-.02.06-.04.11.07,0,.12.01.18.01.06,0,.09,0,.12.08.08.18.22.28.43.16.03-.02.1.04.17.06,0-.16.07-.25.23-.3.01,0,.09.05.17.09.08.05.16.12.24.17.14.1.26.21.3.4.06-.03.1-.05.14-.07.19.12.39.24.59.36.36.21.7.45,1.06.64.48.26.92.58,1.37.89.38.26.76.52,1.05.91-.03.04-.05.07-.08.11.03.02.07.05.11.08.02-.03.04-.07.06-.12.2.21.42.4.6.62.27.33.53.67.74,1.05.09.16.19.32.27.48.2.39.33.82.45,1.24.08.25.06.52.09.78-.11.04-.2.08-.3.11.08.08.14.14.19.19.02-.02.05-.04.07-.06.01.02.03.04.03.06-.03.55-.16,1.08-.38,1.58-.11.27-.21.54-.41.77-.09.11-.15.24-.24.35-.18.22-.38.43-.56.63-.11,0-.2,0-.29,0-.01.02-.04.04-.03.05.05.25-.15.37-.3.46-.38.23-.72.52-1.15.66-.3.1-.59.2-.9.27-.47.1-.93.02-1.4.04-.18,0-.34-.11-.53-.07-.18-.2-.46-.13-.67-.24-.2-.11-.4-.22-.6-.32-.23-.13-.45-.27-.65-.45-.16-.14-.33-.27-.48-.4.02-.1.04-.18.07-.27-.13,0-.23,0-.3,0-.18-.23-.34-.43-.52-.66-.1.29-.16.56-.17.83-.01.39.15.75.24,1.12q-.15.08-.27.28c.14,0,.28.02.4.03.26.44.42.93.7,1.36.1.14.28.34.09.57-.03.04.04.16.12.23,0-.11.01-.22.02-.33q.14.21.06.37c.1.17.31.2.39.4.07.17.19.31.3.49"/>
  </g>
</svg>