<?xml version="1.0" encoding="UTF-8"?>
<svg id="Layer_2" data-name="Layer 2" xmlns="http://www.w3.org/2000/svg" viewBox="0 0 18.16 19.15">
  <defs>
    <style>
      .cls-1 {
        fill: #2f292a;
      }
    </style>
  </defs>
  <g id="Layer_1-2" data-name="Layer 1">
    <path class="cls-1" d="M9.84,15.24c-.07.17.01.29.13.41.04-.08.08-.16.11-.24.03-.08.05-.16.07-.25.03-.12.16-.44.23-.53.06-.08.13-.15.19-.21,0-.04,0-.05,0-.06-.11-.14-.28-.12-.37-.06-.13.09-.32.18-.29.39.03.21-.04.38-.21.5-.02.01-.02.07,0,.09.01.02.06.03.09.02.03,0,.05-.05.07-.07M14.31,11.26c-.05-.02-.1-.02-.13-.04-.11-.09-.18-.14-.32-.03-.08.06-.25.07-.36.03-.2-.07-.38,0-.57.02-.05,0-.11.1-.13.16-.02.07.02.1.11.12.09.02.15.13.21.19.17-.05.32-.02.46-.11.08-.05.23-.07.35.04.11.09.23.05.33-.04.1-.09.1-.2.06-.34M8.44,17.59c.12.12.22.05.37.05-.04-.07-.06-.12-.09-.12-.11-.02-.22-.01-.36-.02-.03.03-.08.09-.12.13-.16-.13-.3-.26-.49-.42,0-.02.12-.12,0-.24-.06.05-.12.11-.18.15-.21-.18-.43-.35-.67-.55.05-.03.1-.07.16-.1-.01-.02-.03-.03-.04-.05-.04.02-.09.04-.16.07.01,0,0,0-.02,0-.12-.09-.24-.18-.35-.29-.03-.03-.01-.11-.01-.19q-.14-.12-.28-.04c-.39-.32-.8-.65-1.19-.98-.04-.03-.05-.09-.08-.14-.02-.03-.05-.08-.07-.08-.15.02-.22-.08-.3-.18-.02-.03-.06-.04-.09-.07q-.07-.05,0-.18c-.19-.03-.2-.02-.33-.14-.14-.13-.35-.19-.37-.42,0-.02-.05-.06-.08-.06-.26,0-.38-.23-.57-.34.07-.14-.12-.24,0-.39-.03,0-.05,0-.08-.01-.07.05-.13.11-.2.17-.37-.31-.78-.6-1.13-.95-.53-.53-1.15-.95-1.7-1.46.43-.55.87-1.11,1.31-1.67.26-.33.5-.68.72-.98.13,0,.21.01.33.02-.06-.09-.09-.15-.12-.2.13-.31.36-.55.56-.8.45-.57.92-1.12,1.34-1.71.27-.39.59-.73.85-1.1.06.02.11.03.17.04,0-.03.03-.08.02-.09-.13-.09-.02-.18.01-.25.04-.09.13-.16.19-.24.18-.21.37-.42.53-.65.31-.46.67-.87,1.02-1.3.03-.04.04-.1.05-.13.07,0,.12,0,.18,0-.01-.05-.03-.1-.05-.17.15-.18.33-.4.5-.61.04-.06.09-.1.17-.1.02,0,.07-.03.07-.05-.02-.3.22-.45.37-.66.01-.02.04-.02.08-.05.16.17.4.27.53.5.02.03.05.04.08.07.45.39.9.79,1.36,1.19,0,.16.06.31.21.42.03-.03.06-.05.09-.07.03,0,.06,0,.07.02.17.16.39.27.49.51.02.05.07.1.12.11.19.04.32.19.43.32.13.15.28.26.42.39.34.31.68.61,1.01.92.21.19.43.38.63.57.17.15.33.31.49.47.16.14.33.27.47.44.16.18.37.32.55.47-.09.29-.07.39.12.45-.1-.13-.16-.25-.01-.35.05.06.1.12.16.18.24.22.51.42.74.66.35.36.75.67,1.13,1.01.18.16.35.32.52.49.04.04.05.12.07.18.07,0,.13.01.2.02-.5.6-.99,1.19-1.47,1.79-.09.11-.21.2-.24.36-.01.04-.1.07-.16.11-.03.02-.08.06-.08.07.04.13-.07.19-.13.27-.52.64-1.07,1.26-1.56,1.91-.35.46-.72.92-1.08,1.38-.11.14-.26.26-.36.42-.1.16-.25.31-.37.46-.12.15-.26.3-.37.46-.73,1.04-1.6,1.97-2.4,2.99-.18-.18-.35-.35-.53-.51-.27-.24-.55-.47-.83-.68-.12-.09-.15-.19-.13-.37"/>
  </g>
</svg>