<?xml version="1.0" encoding="UTF-8"?>
<svg id="Layer_2" data-name="Layer 2" xmlns="http://www.w3.org/2000/svg" viewBox="0 0 16.7 18.17">
  <defs>
    <style>
      .cls-1 {
        fill: #2f292a;
      }
    </style>
  </defs>
  <g id="Layer_1-2" data-name="Layer 1">
    <path class="cls-1" d="M1.37,8.63c-.04-.12-.08-.26-.12-.39-.07-.22-.17-.25-.36-.16-.12.06-.2.15-.29.23-.1.08-.11.17-.02.26.14.15.29.3.45.46.11-.07.21-.16.32-.18.23-.04.21-.18.22-.41-.09.09-.14.14-.19.18M2.1,6.44c-.07-.31-.21-.59-.12-.9.02-.06-.03-.14-.04-.19-.16-.02-.28-.03-.39-.05-.12.23,0,.4.14.54-.09.18-.28.14-.39.24,0,.03-.02.07,0,.1,0,.02.04.05.06.06.12.06.2.14.25.27.02.07.06.13.11.22.14-.1.26-.2.4-.3M3.54,14.23c.05-.17.1-.35.16-.55-.1-.01-.17-.02-.27-.03-.04.07-.09.15-.15.25-.09-.12-.18-.23-.27-.34-.09-.12-.16-.25-.25-.36-.1-.12-.25-.21-.29-.35-.05-.15-.17-.24-.24-.36-.07-.12-.15-.25-.23-.37-.08-.12-.16-.24-.23-.37-.07-.13-.13-.28-.2-.41-.07-.13-.16-.24-.22-.37-.06-.13-.1-.26-.16-.41.05-.03.13-.06.19-.11.05-.05.08-.12.13-.21-.06-.04-.11-.08-.17-.13-.09.06-.18.12-.28.2-.44-1.04-.74-2.1-.95-3.2.11.01.21.02.31.04.08.18.17.38.25.58.06-.02.1-.04.14-.06.26-.12.29-.17.19-.42-.03-.08-.05-.14-.04-.22.02-.08,0-.15-.04-.22-.08-.16-.16-.25-.29-.19-.13.06-.3.02-.39.17-.02.02-.05.04-.1.07-.04-.07-.07-.13-.1-.2.07-.09.16-.17.22-.26.04-.06.02-.15.04-.29-.11.14-.08.33-.29.3,0-.32-.01-.64-.02-.97.05,0,.12,0,.18-.01.05-.18-.12-.1-.18-.17.13-.1.08-.22,0-.36.07,0,.11,0,.14-.02.08-.05.06-.08-.09-.16.02-.14.03-.3.06-.46.03-.15.04-.33.13-.44.08-.1-.05-.21.09-.31.08-.06.08-.24.13-.37.04-.11.13-.2.17-.31.09-.25.26-.45.41-.66.3-.42.67-.76,1.09-1.05.36-.25.75-.47,1.15-.65.38-.17.76-.3,1.17-.37.16-.03.32-.07.48-.07.13,0,.26-.02.4-.02.14,0,.28.04.41.04.28,0,.53.09.79.17.12.04.24.09.28.25.02.08.09.15.14.22.21-.15.21-.14.4.02.21.18.42.35.62.51-.01.04-.01.05-.02.05-.04.07-.1.13-.12.2-.01.04.03.1.05.16.11,0,.24.08.37-.04.17.3.35.6.52.89.19-.14.29-.42.58-.5.08-.02.14-.14.2-.21.08-.09.15-.07.21.02.04-.09.05-.2.11-.27.05-.06.16-.08.23-.13.35-.24.73-.45,1.14-.57.38-.12.77-.25,1.19-.18.19-.07.35-.02.53.05.18.07.39.04.58.09.11.03.2.12.31.17.32.15.76.45.98.69.11.11.22.22.33.34.1.12.09.18-.02.28-.06.05-.13.1-.19.15-.16-.02-.32-.04-.48-.06-.06.21-.03.28.28.68.09-.06.25-.05.13-.25-.05-.08.02-.18.12-.22.08-.04.16-.07.24-.11.16.16.31.36.58.34.26.37.38.78.59,1.16.05.09.04.21.07.31.1.4.21.8.18,1.22.1.19,0,.38,0,.57,0,.08-.03.16-.03.24,0,.11.09.22.03.32-.06.09-.16.15-.25.24.18.21.16.43.03.65-.03.05-.04.13-.04.2,0,.3-.21.54-.24.82,0,.01-.06.02-.08.04-.03.03-.05.06-.07.09.14.1.01.18-.03.25-.08.14-.13.3-.18.45-.05.15-.14.18-.26.23.12.17,0,.3-.07.44-.35.66-.75,1.28-1.17,1.88-.21.29-.42.57-.64.86-.05.07-.12.13-.17.2-.02.02-.02.07-.04.09-.07.04-.22.03-.19.12.05.15-.09.12-.12.19-.03.07-.1.12-.15.18-.06.07-.14.12-.16.2-.03.1-.12.13-.17.2-.08.1-.16.2-.24.31-.08.1-.18.17-.26.25-.09.08-.22.15-.33.22-.08.04-.19.04-.31.07,0,.03.02.08.03.15,0-.01,0,0-.01.02-.31.23-.63.46-.94.68-.09.06-.19.1-.28.14-.03-.02-.06-.05-.1-.08-.05.06-.11.11-.12.16-.01.16-.12.25-.24.31-.3.14-.53.36-.77.56-.14.12-.3.2-.44.19-.17-.01-.23.11-.24.17-.02.18-.14.25-.26.3-.22.09-.37.26-.56.39-.21.14-.41.28-.62.42-.07-.06-.14-.12-.22-.19.07-.04.14-.08.25-.14-.1-.07-.17-.13-.27-.2-.03.09-.06.15-.06.17-.12-.15-.26-.33-.42-.54,0-.05.22.05.14-.11-.02,0-.04-.03-.05-.03-.14.08-.22.04-.35-.07-.2-.17-.33-.38-.49-.56-.27-.31-.54-.62-.8-.94-.13-.15-.27-.3-.35-.47-.09-.18-.32-.19-.37-.38.05-.06.11-.12.18-.2-.14-.04-.24-.09-.35,0-.06-.08-.13-.16-.22-.29"/>
  </g>
</svg>