<?xml version="1.0" encoding="UTF-8"?>
<svg id="Layer_2" data-name="Layer 2" xmlns="http://www.w3.org/2000/svg" viewBox="0 0 21.32 19.94">
  <defs>
    <style>
      .cls-1 {
        fill: #2f292a;
      }
    </style>
  </defs>
  <g id="Layer_1-2" data-name="Layer 1">
    <path class="cls-1" d="M3.06,12.14c-.18-.07-.16-.19-.17-.32-.09.02-.17.04-.24.07-.06.02-.19.05-.23.03-.16-.07-.32-.13-.48-.2-.05-.02-.08-.07-.12-.11.03-.02.07-.04.08-.07.01-.03,0-.07-.02-.09-.02-.02-.08-.01-.09,0-.08.18-.15.08-.28.04-.12-.04-.04-.22-.19-.18-.11.03-.15-.07-.22-.12-.2-.16-.38-.34-.55-.54-.24-.29-.35-.63-.48-.99.17-.04.32.02.5.02.08-.1.18-.2.29-.34-.06-.04-.11-.07-.18-.12,0,0-.05.04-.1.04-.19,0-.38,0-.58.01.01-.1.02-.18.03-.27.05.03.09.06.15.1.07-.14.05-.27.09-.41-.04-.01-.07-.03-.1-.04-.02-.14-.04-.29-.05-.44,0-.01,0-.03,0-.04.09-.13.26-.23.12-.42.06-.14.12-.28.19-.41.08-.14.17-.27.26-.41.36-.56.87-.93,1.5-1.12.37-.11.74-.2,1.13-.15.06,0,.13,0,.19-.02.11-.04.16-.02.21.11.03.09.13.03.12-.12.28.06.54.09.77.19.18.08.37.11.55.19.14.06.29.11.3.3.05-.01.12-.05.14-.04.15.14.36.19.52.33.32.31.67.58.95.93s.58.7.92.99c.28.24.59.47.96.59.36.12.73.13,1.13.2-.07-.27-.14-.5-.17-.74-.08-.62-.4-1.13-.73-1.63-.2-.3-.39-.6-.59-.9-.03-.05-.05-.12-.08-.2.04-.03.1-.06.16-.09q-.1-.2-.3-.14c-.07-.15-.13-.31-.21-.46-.03-.07-.02-.12,0-.18-.09-.02-.12-.07-.11-.17,0-.07-.06-.14-.06-.21-.02-.26-.12-.5-.11-.78,0-.26,0-.52.04-.77.04-.23.09-.46.15-.69.02-.07.15-.15.14-.16-.06-.09-.05-.13.03-.2.06-.06.07-.16.11-.23.32-.51.68-.96,1.22-1.27.37-.21.74-.35,1.15-.44.16-.04.32-.05.49-.05.11,0,.24.06.34.03.13-.04.21.05.33.05.11,0,.24,0,.34.05.14.07.3.08.44.14.27.12.54.24.76.42.27.23.57.42.78.72.29.42.48.88.62,1.36.05.15.02.33.02.49,0,.12-.08.25.03.36,0,0,0,.02,0,.03-.04.11-.08.23-.11.34-.03.11-.05.22-.08.33-.09.33-.33.58-.43.9-.26.26-.43.6-.65.89-.23.3-.48.58-.68.91-.08.13-.18.24-.29.35-.04.04-.11.06-.15.07,0,.07.02.14,0,.18-.3.36-.56.74-.81,1.13-.13.2-.09.42-.13.62,0,.03.09.11.14.12.33.05.67.14.98-.07.03-.02.08-.02.12-.04.12-.04.24-.12.35-.11.11,0,.21.1.3.16.05-.04.08-.07.13-.1-.07-.06-.13-.11-.19-.15.18-.08.37-.16.58-.25-.01.1-.02.18-.03.27.08.01.13.02.18.02.01-.03.03-.05.03-.06-.03-.08-.06-.16-.09-.26.24-.13.49-.29.76-.41.45-.2.91-.39,1.37-.58.18-.07.36-.13.55-.18.09-.03.15.02.2.17.07-.06.14-.12.21-.18.12-.1.25-.13.4-.11.11.01.22-.01.35-.02-.03.05-.05.1-.09.17.09.02.17.04.27.06.02-.07.04-.14.06-.21.8.08,1.52.32,2.14.84-.04.08-.08.14-.13.23.07,0,.13.03.16.02.2-.09.3.04.4.16.03.03.03.08.05.12.17.31.37.62.45,1-.08,0-.15.01-.26.02.12.02.17.16.28.09.1.74.13.61-.04,1.46-.01-.07-.02-.14-.03-.17-.25.05-.18.21-.23.31-.12.02-.23.05-.35.08.16.29.34.09.54.01,0,.15-.01.26-.06.38-.27.71-.71,1.29-1.33,1.72-.03-.05-.07-.11-.13-.21-.03.14-.05.23-.07.31-.08.04-.2-.05-.24.12-.01.05-.17.07-.26.09-.08.03-.16.05-.25.07-.09.02-.19.03-.29.04-.37.06-.73-.02-1.09-.06-.13-.02-.27-.05-.37-.13-.08-.06-.11-.19-.16-.28-.09.02-.14.17-.27.08.03-.03.05-.05.08-.07-.03-.03-.06-.07-.09-.11-.03.04-.05.08-.09.14-.35-.25-.74-.45-1.06-.73-.11-.09-.22-.18-.33-.26-.06-.04-.14-.06-.13-.16,0-.03-.05-.1-.09-.1-.3-.03-.45-.29-.68-.44-.1-.07-.19-.15-.18-.3,0-.06-.07-.14-.12-.19-.06-.06-.13-.06-.21-.01-.04.02-.13,0-.18-.02-.24-.13-.42-.34-.7-.4-.05-.01.02-.23-.15-.09-.03.03-.15-.06-.23-.09-.08-.03-.16-.06-.24-.1-.27-.13-.57-.13-.89-.17-.01.07-.03.15-.04.22-.03.26-.06.53-.1.79-.06.4-.07.8,0,1.2.03.21,0,.42,0,.63,0,.14.03.28.04.42,0,.07-.03.15,0,.21.02.07.09.12.08.21,0,.08.02.18.04.25.05.17.03.35.08.51.05.17.08.34.07.52,0,.12.1.23.13.36.08.37.18.73.26,1.1.06.28.18.55.24.83.09.42.25.82.31,1.25,0,.05.02.06-.02.1-.02.02-.01.11,0,.11.15.03.1.17.15.25-.02.08-.18,0-.16.13,0,0-.05.03-.08.03-.06,0-.11-.01-.17-.02-1.65-.2-3.3-.39-4.94-.58-.03,0-.07-.01-.12-.02.04-.11.07-.23.1-.34,0-.02.04-.06.06-.06.11,0,.1-.05.07-.13-.02-.04-.03-.09-.01-.12.21-.37.32-.78.52-1.17.14.14.29.13.44.03-.06-.17-.24-.1-.4-.16.21-.32.22-.73.53-.99.03-.02.05-.1.03-.12-.12-.16.03-.27.07-.39.12-.34.27-.66.42-1.01.03,0,.1,0,.17,0,0-.05.03-.09.01-.13-.06-.23-.04-.22.02-.41.11-.34.26-.67.37-1.01.07-.22.07-.45.15-.65.16-.43.14-.88.22-1.31,0-.04,0-.09.01-.1.1-.08.11-.19.08-.3-.04-.14-.05-.29-.18-.39-.03-.02-.04-.05-.05-.06-.38-.12-.71,0-1.05.11-.32.11-.64.2-.95.31-.34.13-.69.26-1.02.43-.36.18-.74.32-1.1.48-.32.14-.65.21-.99.29-.25.06-.5.12-.75.05-.21.1-.42,0-.63,0,.03-.1.17-.02.16-.16,0-.11-.07-.15-.15-.21-.07.13-.12.24-.18.36"/>
  </g>
</svg>