<?xml version="1.0" encoding="UTF-8"?>
<svg id="Layer_2" data-name="Layer 2" xmlns="http://www.w3.org/2000/svg" viewBox="0 0 91.7 16.23">
  <defs>
    <style>
      .cls-1 {
        fill: #2f292a;
      }
    </style>
  </defs>
  <g id="Layer_1-2" data-name="Layer 1">
    <path class="cls-1" d="M7.27,5.33c-.3,1.3-.6,2.6-.89,3.9-.44,1.96-.89,3.92-1.31,5.89-.14.66-.45.92-1.15.92-.74,0-1-.35-1.12-.97-.51-2.59-1.03-5.19-1.55-7.78C.86,5.34.47,3.39.1,1.44.02,1.02-.21.5.51.35c.76-.15,1.19.04,1.33.75.6,3.02,1.16,6.05,1.73,9.07.11.57.22,1.15.5,1.74.21-.89.42-1.78.63-2.67.61-2.68,1.23-5.36,1.8-8.04.14-.65.41-.89,1.07-.88.67,0,.87.33.97.92.59,3.25,1.21,6.5,1.82,9.75.06.29.14.57.38.87.31-1.37.61-2.74.92-4.11.52-2.26,1.05-4.51,1.55-6.77.16-.73.68-.68,1.19-.61.61.08.49.55.4.95-1.02,4.57-2.05,9.13-3.05,13.71-.17.77-.51,1.07-1.31,1.01-.56-.04-.83-.25-.93-.79-.49-2.52-1-5.04-1.51-7.56-.16-.79-.37-1.57-.55-2.36-.06,0-.11,0-.17,0"/>
    <path class="cls-1" d="M83.64,4.95h0c0,.61,0,1.22,0,1.83,0,.42.17.68.63.66,1.07-.03,2.15.01,3.21-.09,1.74-.17,2.46-1.05,2.4-2.8-.04-1.04-.42-1.61-1.45-1.75-1.39-.19-2.79-.23-4.18-.33-.46-.03-.63.2-.61.65.03.61,0,1.22,0,1.83M81.36,9.4c.1-2.65.21-5.29.3-7.94.02-.69.32-1,1.04-.97,1.91.07,3.84-.05,5.73.18,2.14.26,3.3,1.79,3.27,3.94,0,.66-.13,1.31-.23,1.96-.18,1.11-.85,1.81-1.88,2.23-1.04.43-1.02.46-.57,1.51.64,1.5,1.24,3.01,1.88,4.51.28.64.05,1.02-.54,1.27-.66.28-1.06.12-1.34-.54-.75-1.78-1.51-3.57-2.22-5.36-.23-.57-.53-.91-1.19-.79-.05.01-.1,0-.15,0-1.82,0-1.81,0-1.86,1.79-.04,1.25-.1,2.49-.15,3.74-.04.81-.26.96-1.11,1-.78.04-.96-.36-.96-1.03.01-1.83,0-3.67,0-5.5-.01,0-.03,0-.04,0"/>
    <path class="cls-1" d="M36.04,4.32c0,3.81-.02,7.37.01,10.93.01,1.1-.76.68-1.29.75-.62.09-.79-.22-.79-.8.05-4.23.08-8.46.12-12.68,0-.3-.05-.62.01-.91.08-.39.25-1.09.36-1.09.55.03,1.3.06,1.6.41.94,1.1,1.81,2.29,2.53,3.54,1.05,1.83,1.95,3.75,2.91,5.63.14.27.3.52.45.77.07,0,.14-.02.21-.02v-1.47c0-2.68,0-5.35,0-8.03,0-.98.06-.99.96-1.04.8-.05.92.34.92,1.01.01,4.33.07,8.66.09,12.99,0,.43.28,1.01-.48,1.16-.83.17-1.52-.07-1.85-.7-.59-1.13-1.13-2.28-1.74-3.4-1.2-2.19-2.44-4.36-3.66-6.53-.07-.12-.16-.24-.36-.54"/>
    <path class="cls-1" d="M25.26,2.07c-1.97.04-3.19,1-3.61,2.77-.42,1.78-.32,3.6-.18,5.39.09,1.17.63,2.2,1.51,3.01.94.86,2.03.91,3.08.21.97-.65,1.46-1.52,1.48-2.69.02-1.3.14-2.6.08-3.89-.07-1.36,0-2.76-.85-3.97-.4-.58-.87-.92-1.52-.83M29.69,8.55c-.13,1.13-.2,2.48-.46,3.8-.39,1.94-2.06,3.41-3.95,3.65-2.1.27-3.81-.61-4.84-2.48-1.28-2.32-1.28-4.83-1.13-7.36.09-1.52.51-2.94,1.5-4.17,1.43-1.78,4.18-2.46,6.24-1.48,1.3.62,2.04,1.68,2.19,3.1.17,1.57.29,3.14.45,4.93"/>
    <path class="cls-1" d="M58.39,7.39h.11c0-1.25,0-2.49,0-3.74,0-1.04-.64-1.69-1.7-1.72-.59-.01-1.18,0-1.76,0-1.87.01-1.87.01-1.86,1.89.02,2.98.04,5.95.07,8.93,0,.34-.09.75.47.77,1.15.04,2.3.13,3.44.12.86,0,1.22-.38,1.23-1.23.03-1.68,0-3.35,0-5.03M51.19,8.03c0-2.17,0-4.33,0-6.5,0-1.11.22-1.41,1.31-1.44,1.66-.05,3.33-.07,4.98.08,1.44.13,2.44,1.23,2.68,2.65.1.62.12,1.27.13,1.9.02,2.52.02,5.05,0,7.57,0,2.26-1.3,3.47-3.57,3.39-1.51-.06-3.02-.11-4.53-.16-.93-.03-1.08-.18-1.08-1.07,0-2.14,0-4.28,0-6.42h.07Z"/>
    <path class="cls-1" d="M71.16,16c-1.23,0-2.46.01-3.68,0-.88-.01-1.09-.23-1.08-1.1.04-4.68.1-9.37.13-14.05,0-.58.2-.84.79-.84,1.73,0,3.47,0,5.2,0,.77,0,1.54,0,2.3.03.78.02.95.26.99,1.12.03.68-.21,1.08-.94,1.08-1.76,0-3.53,0-5.29-.01-1.2,0-1.2-.02-1.2,1.14,0,.82.04,1.63,0,2.45-.02.59.2.83.79.82.87-.02,1.74-.02,2.61.01.51.02,1.08.03,1.06.78-.02.71-.4.96-1.09.96-.92,0-1.84.1-2.76.11-.48,0-.61.21-.61.64,0,1.27,0,2.55-.03,3.82-.01.51.14.74.69.75,1.89.03,3.78.07,5.66.14.93.04,1.15.33,1.08,1.26-.04.6-.32.93-.97.93-1.23-.01-2.45,0-3.68,0h0Z"/>
  </g>
</svg>